<mxfile>
    <diagram id="-Y4o4wuvshwQIzuEaOJt" name="Page-1">
        <mxGraphModel dx="715" dy="439" grid="1" gridSize="10" guides="1" tooltips="1" connect="1" arrows="1" fold="1" page="1" pageScale="1" pageWidth="827" pageHeight="1169" math="0" shadow="0">
            <root>
                <mxCell id="0"/>
                <mxCell id="1" parent="0"/>
                <mxCell id="t0vAwRHH_Trr7EYfrA9h-9" value="kubernetes cluster" style="rounded=0;whiteSpace=wrap;html=1;fillColor=#dae8fc;strokeColor=#6c8ebf;align=left;verticalAlign=top;" parent="1" vertex="1">
                    <mxGeometry x="20" y="210" width="540" height="380" as="geometry"/>
                </mxCell>
                <mxCell id="26" style="edgeStyle=orthogonalEdgeStyle;rounded=0;orthogonalLoop=1;jettySize=auto;html=1;exitX=1;exitY=0.5;exitDx=0;exitDy=0;entryX=0;entryY=0.5;entryDx=0;entryDy=0;" edge="1" parent="1" source="3" target="4">
                    <mxGeometry relative="1" as="geometry"/>
                </mxCell>
                <mxCell id="3" value="&lt;font face=&quot;Courier New&quot;&gt;ingressController&lt;/font&gt;" style="rounded=1;whiteSpace=wrap;html=1;fillColor=#60a917;strokeColor=#2D7600;align=left;verticalAlign=top;fontColor=#ffffff;" parent="1" vertex="1">
                    <mxGeometry x="30" y="315" width="130" height="75" as="geometry"/>
                </mxCell>
                <mxCell id="19" style="edgeStyle=orthogonalEdgeStyle;rounded=0;orthogonalLoop=1;jettySize=auto;html=1;exitX=0.5;exitY=1;exitDx=0;exitDy=0;entryX=0.439;entryY=-0.019;entryDx=0;entryDy=0;entryPerimeter=0;startArrow=none;startFill=0;endArrow=classicThin;endFill=1;" parent="1" source="4" target="6" edge="1">
                    <mxGeometry relative="1" as="geometry"/>
                </mxCell>
                <mxCell id="20" style="edgeStyle=orthogonalEdgeStyle;rounded=0;orthogonalLoop=1;jettySize=auto;html=1;exitX=0.5;exitY=1;exitDx=0;exitDy=0;entryX=0.5;entryY=0;entryDx=0;entryDy=0;startArrow=none;startFill=0;endArrow=classicThin;endFill=1;" parent="1" source="4" target="7" edge="1">
                    <mxGeometry relative="1" as="geometry"/>
                </mxCell>
                <mxCell id="21" style="edgeStyle=orthogonalEdgeStyle;rounded=0;orthogonalLoop=1;jettySize=auto;html=1;exitX=0.5;exitY=1;exitDx=0;exitDy=0;entryX=0.5;entryY=0;entryDx=0;entryDy=0;startArrow=none;startFill=0;endArrow=classicThin;endFill=1;" parent="1" source="4" target="8" edge="1">
                    <mxGeometry relative="1" as="geometry"/>
                </mxCell>
                <mxCell id="4" value="&lt;font face=&quot;Courier New&quot;&gt;&lt;b&gt;Service : 10.10.200.10&lt;/b&gt;&lt;br&gt;Type: ClusterIP&lt;br&gt;Name: front&lt;br&gt;port: 8080&lt;br&gt;targetPort: 80&lt;br&gt;Selector: app=web&lt;/font&gt;" style="rounded=1;whiteSpace=wrap;html=1;fillColor=#f8cecc;strokeColor=#b85450;align=left;verticalAlign=top;" parent="1" vertex="1">
                    <mxGeometry x="205" y="297.5" width="185" height="110" as="geometry"/>
                </mxCell>
                <mxCell id="17" style="edgeStyle=orthogonalEdgeStyle;rounded=0;orthogonalLoop=1;jettySize=auto;html=1;exitX=0.5;exitY=0;exitDx=0;exitDy=0;startArrow=classicThin;startFill=1;endArrow=none;endFill=0;" parent="1" source="5" target="4" edge="1">
                    <mxGeometry relative="1" as="geometry"/>
                </mxCell>
                <mxCell id="5" value="&lt;font face=&quot;Courier New&quot;&gt;Pod 1&lt;br&gt;app=web&lt;br&gt;192.168.4.10&lt;br&gt;&lt;/font&gt;" style="rounded=1;whiteSpace=wrap;html=1;fillColor=#d5e8d4;strokeColor=#82b366;align=left;verticalAlign=top;" parent="1" vertex="1">
                    <mxGeometry x="40" y="500" width="120" height="60" as="geometry"/>
                </mxCell>
                <mxCell id="6" value="&lt;font face=&quot;Courier New&quot;&gt;Pod 2&lt;br&gt;&lt;/font&gt;&lt;span style=&quot;font-family: &amp;#34;courier new&amp;#34;&quot;&gt;app=web&lt;/span&gt;&lt;br style=&quot;font-family: &amp;#34;courier new&amp;#34;&quot;&gt;&lt;span style=&quot;font-family: &amp;#34;courier new&amp;#34;&quot;&gt;192.168.4.11&lt;/span&gt;&lt;font face=&quot;Courier New&quot;&gt;&lt;br&gt;&lt;/font&gt;" style="rounded=1;whiteSpace=wrap;html=1;fillColor=#d5e8d4;strokeColor=#82b366;align=left;verticalAlign=top;" parent="1" vertex="1">
                    <mxGeometry x="170" y="500" width="120" height="60" as="geometry"/>
                </mxCell>
                <mxCell id="7" value="&lt;font face=&quot;Courier New&quot;&gt;Pod 3&lt;br&gt;&lt;/font&gt;&lt;span style=&quot;font-family: &amp;#34;courier new&amp;#34;&quot;&gt;app=web&lt;/span&gt;&lt;br style=&quot;font-family: &amp;#34;courier new&amp;#34;&quot;&gt;&lt;span style=&quot;font-family: &amp;#34;courier new&amp;#34;&quot;&gt;192.168.4.12&lt;/span&gt;&lt;font face=&quot;Courier New&quot;&gt;&lt;br&gt;&lt;/font&gt;" style="rounded=1;whiteSpace=wrap;html=1;fillColor=#d5e8d4;strokeColor=#82b366;align=left;verticalAlign=top;" parent="1" vertex="1">
                    <mxGeometry x="300" y="500" width="120" height="60" as="geometry"/>
                </mxCell>
                <mxCell id="8" value="&lt;font face=&quot;Courier New&quot;&gt;Pod 4&lt;br&gt;&lt;/font&gt;&lt;span style=&quot;font-family: &amp;#34;courier new&amp;#34;&quot;&gt;app=web&lt;/span&gt;&lt;br style=&quot;font-family: &amp;#34;courier new&amp;#34;&quot;&gt;&lt;span style=&quot;font-family: &amp;#34;courier new&amp;#34;&quot;&gt;192.168.4.13&lt;/span&gt;&lt;font face=&quot;Courier New&quot;&gt;&lt;br&gt;&lt;/font&gt;" style="rounded=1;whiteSpace=wrap;html=1;fillColor=#d5e8d4;strokeColor=#82b366;align=left;verticalAlign=top;" parent="1" vertex="1">
                    <mxGeometry x="430" y="500" width="120" height="60" as="geometry"/>
                </mxCell>
                <mxCell id="22" value="&lt;span style=&quot;color: rgb(0, 0, 0); font-family: &amp;quot;courier new&amp;quot;; font-style: normal; font-weight: 400; letter-spacing: normal; text-align: left; text-indent: 0px; text-transform: none; word-spacing: 0px; display: inline; float: none;&quot;&gt;&lt;font style=&quot;font-size: 10px&quot;&gt;192.168.4.10:80&lt;/font&gt;&lt;/span&gt;" style="text;whiteSpace=wrap;html=1;labelBackgroundColor=#FFE6CC;" parent="1" vertex="1">
                    <mxGeometry x="60" y="420" width="110" height="30" as="geometry"/>
                </mxCell>
                <mxCell id="23" value="&lt;span style=&quot;color: rgb(0, 0, 0); font-family: &amp;quot;courier new&amp;quot;; font-style: normal; font-weight: 400; letter-spacing: normal; text-align: left; text-indent: 0px; text-transform: none; word-spacing: 0px; display: inline; float: none;&quot;&gt;&lt;font style=&quot;font-size: 10px&quot;&gt;192.168.4.11:80&lt;/font&gt;&lt;/span&gt;" style="text;whiteSpace=wrap;html=1;labelBackgroundColor=#FFE6CC;" parent="1" vertex="1">
                    <mxGeometry x="175" y="420" width="110" height="30" as="geometry"/>
                </mxCell>
                <mxCell id="24" value="&lt;span style=&quot;color: rgb(0, 0, 0); font-family: &amp;quot;courier new&amp;quot;; font-style: normal; font-weight: 400; letter-spacing: normal; text-align: left; text-indent: 0px; text-transform: none; word-spacing: 0px; display: inline; float: none;&quot;&gt;&lt;font style=&quot;font-size: 10px&quot;&gt;192.168.4.12:80&lt;/font&gt;&lt;/span&gt;" style="text;whiteSpace=wrap;html=1;labelBackgroundColor=#FFE6CC;" parent="1" vertex="1">
                    <mxGeometry x="304" y="420" width="110" height="30" as="geometry"/>
                </mxCell>
                <mxCell id="25" value="&lt;span style=&quot;color: rgb(0, 0, 0); font-family: &amp;quot;courier new&amp;quot;; font-style: normal; font-weight: 400; letter-spacing: normal; text-align: left; text-indent: 0px; text-transform: none; word-spacing: 0px; display: inline; float: none;&quot;&gt;&lt;font style=&quot;font-size: 10px&quot;&gt;192.168.4.13:80&lt;/font&gt;&lt;/span&gt;" style="text;whiteSpace=wrap;html=1;labelBackgroundColor=#FFE6CC;" parent="1" vertex="1">
                    <mxGeometry x="440" y="420" width="110" height="30" as="geometry"/>
                </mxCell>
                <mxCell id="31" style="edgeStyle=orthogonalEdgeStyle;rounded=0;orthogonalLoop=1;jettySize=auto;html=1;exitX=0.5;exitY=0;exitDx=0;exitDy=0;entryX=1;entryY=0.5;entryDx=0;entryDy=0;" edge="1" parent="1" source="27" target="30">
                    <mxGeometry relative="1" as="geometry"/>
                </mxCell>
                <mxCell id="27" value="&lt;font face=&quot;Courier New&quot; style=&quot;font-size: 10px&quot;&gt;ingress&lt;br&gt;Host: front.caas.fr&lt;br&gt;Path: /&lt;br&gt;&amp;nbsp; serviceName: front&lt;br&gt;&amp;nbsp; servicePort: 8080&lt;br&gt;&lt;br&gt;&lt;/font&gt;" style="rounded=1;whiteSpace=wrap;html=1;fillColor=#60a917;strokeColor=#2D7600;align=left;verticalAlign=top;fontColor=#ffffff;" vertex="1" parent="1">
                    <mxGeometry x="410" y="300" width="130" height="80" as="geometry"/>
                </mxCell>
                <mxCell id="32" style="edgeStyle=orthogonalEdgeStyle;rounded=0;orthogonalLoop=1;jettySize=auto;html=1;exitX=0;exitY=0.5;exitDx=0;exitDy=0;entryX=0.405;entryY=0.022;entryDx=0;entryDy=0;entryPerimeter=0;" edge="1" parent="1" source="30" target="3">
                    <mxGeometry relative="1" as="geometry"/>
                </mxCell>
                <mxCell id="30" value="kube-api Server" style="rounded=1;whiteSpace=wrap;html=1;fillColor=#1ba1e2;strokeColor=#006EAF;fontColor=#ffffff;" vertex="1" parent="1">
                    <mxGeometry x="237.5" y="220" width="120" height="60" as="geometry"/>
                </mxCell>
                <mxCell id="37" style="edgeStyle=orthogonalEdgeStyle;rounded=0;orthogonalLoop=1;jettySize=auto;html=1;exitX=0.5;exitY=1;exitDx=0;exitDy=0;entryX=0;entryY=0.5;entryDx=0;entryDy=0;" edge="1" parent="1" source="33" target="3">
                    <mxGeometry relative="1" as="geometry">
                        <Array as="points">
                            <mxPoint x="105" y="200"/>
                            <mxPoint x="10" y="200"/>
                            <mxPoint x="10" y="353"/>
                        </Array>
                    </mxGeometry>
                </mxCell>
                <mxCell id="33" value="&lt;font color=&quot;#4d4d4d&quot;&gt;curl http://front.caas.fr&lt;/font&gt;" style="ellipse;whiteSpace=wrap;html=1;fillColor=#e3c800;strokeColor=#B09500;fontColor=#ffffff;" vertex="1" parent="1">
                    <mxGeometry x="40" y="120" width="130" height="70" as="geometry"/>
                </mxCell>
                <mxCell id="36" value="conf" style="shape=note;whiteSpace=wrap;html=1;backgroundOutline=1;darkOpacity=0.05;size=15;" vertex="1" parent="1">
                    <mxGeometry x="67" y="344" width="30" height="40" as="geometry"/>
                </mxCell>
            </root>
        </mxGraphModel>
    </diagram>
</mxfile>